<?xml version="1.0" standalone="no"?>
<!DOCTYPE svg PUBLIC "-//W3C//DTD SVG 20010904//EN"
 "http://www.w3.org/TR/2001/REC-SVG-20010904/DTD/svg10.dtd">
<svg version="1.0" xmlns="http://www.w3.org/2000/svg"
 width="16.000000pt" height="16.000000pt" viewBox="0 0 16.000000 16.000000"
 preserveAspectRatio="xMidYMid meet">
<metadata>
Created by potrace 1.11, written by Peter Selinger 2001-2013
</metadata>
<g transform="translate(0.000000,16.000000) scale(0.003194,-0.003194)"
fill="#000000" stroke="none">
<path d="M3203 4562 c-11 -20 -30 -62 -42 -92 -23 -60 -89 -134 -246 -277
-116 -105 -141 -124 -277 -216 -62 -42 -149 -106 -193 -141 -43 -36 -81 -63
-83 -61 -3 2 1 18 8 35 8 19 22 32 39 36 47 10 58 17 38 21 -28 7 -14 27 24
34 33 6 34 6 10 16 -14 5 -36 9 -49 7 -17 -2 -26 3 -29 17 -6 21 -20 24 -43 9
-13 -9 -12 -12 4 -25 11 -8 27 -15 35 -15 11 0 9 -4 -6 -15 -22 -16 -45 -71
-48 -115 -1 -14 -7 -35 -14 -47 -10 -19 -9 -23 4 -23 8 0 20 9 27 20 31 50 37
5 8 -55 -19 -39 -20 -40 -14 -7 3 19 1 32 -5 32 -20 0 -44 -51 -44 -95 0 -68
27 -105 108 -145 39 -19 79 -41 90 -48 18 -12 17 -12 -12 -7 -21 4 -33 3 -33
-5 0 -14 9 -16 113 -30 48 -7 87 -15 87 -20 0 -4 -47 -19 -105 -35 -58 -15
-194 -63 -302 -106 l-198 -79 -20 25 c-11 13 -29 39 -39 57 l-19 33 28 -25 29
-25 -18 30 c-10 17 -34 51 -52 78 -43 60 -43 67 2 27 20 -17 39 -28 42 -25 4
3 -8 18 -25 33 -51 44 -145 116 -165 128 -34 20 -44 34 -25 34 9 0 17 5 17 10
0 6 -36 9 -92 8 -54 -1 -78 -4 -58 -7 27 -4 19 -7 -39 -11 -65 -4 -74 -8 -77
-26 -2 -11 -15 -41 -29 -67 l-26 -46 -35 22 c-18 12 -34 26 -34 30 0 5 35 43
78 85 76 76 78 77 125 75 26 -1 47 3 47 8 0 5 -15 9 -32 8 -53 -3 -92 1 -85 7
13 13 112 4 123 -11 8 -11 31 -15 89 -15 l78 0 134 -131 c73 -71 138 -127 143
-124 6 4 7 11 4 17 -7 11 24 8 60 -7 15 -7 17 -5 12 12 -6 18 -1 21 44 27 27
4 50 11 50 17 0 7 -20 8 -57 4 -32 -4 -72 -8 -89 -10 -33 -3 -72 12 -112 43
l-24 18 26 80 c40 128 62 253 47 276 -7 11 -11 21 -9 22 2 1 15 10 30 19 15
10 35 32 44 50 24 47 62 89 69 77 12 -20 8 -68 -9 -91 -20 -29 -21 -43 -1 -35
19 7 19 5 0 -30 -15 -30 -20 -76 -9 -87 4 -4 24 9 46 28 39 35 72 49 48 20 -7
-8 -16 -12 -21 -9 -6 3 -7 -11 -3 -34 6 -39 -9 -95 -43 -162 -15 -29 -18 -59
-4 -44 35 36 110 237 111 295 0 33 -32 31 -63 -3 -35 -38 -50 -24 -21 19 9 15
18 45 19 68 1 22 4 47 6 55 3 9 -2 14 -13 14 -13 -1 -18 6 -18 27 0 31 -23 41
-34 14 -10 -26 -23 -16 -18 14 3 19 -2 35 -15 48 -10 10 -17 26 -15 35 2 12
-5 19 -25 23 -54 12 -56 14 -43 30 13 15 5 20 -27 16 -17 -2 -16 9 2 33 12 16
18 17 27 8 15 -15 32 -16 23 -2 -4 6 -1 18 6 26 9 11 9 20 0 41 -11 23 -13 24
-29 11 -9 -8 -25 -18 -34 -21 -11 -4 -18 -17 -18 -32 0 -15 -4 -24 -10 -20 -5
3 -10 15 -10 26 0 28 -29 23 -36 -7 -5 -18 -1 -37 11 -57 l19 -31 -49 -41
c-106 -89 -275 -266 -275 -288 0 -32 11 -44 45 -53 17 -4 40 -14 52 -21 20
-13 25 -12 57 12 46 35 127 65 177 65 l40 0 -6 -57 c-12 -110 -25 -182 -46
-249 -20 -66 -21 -67 -37 -47 -99 123 -116 141 -138 146 -13 2 -85 5 -160 5
-121 1 -137 -1 -154 -18 -11 -11 -20 -27 -20 -36 0 -9 -35 -50 -78 -92 -94
-92 -116 -123 -107 -152 12 -38 125 -97 160 -84 7 3 16 17 20 31 5 23 82 191
92 203 8 9 141 0 170 -11 40 -15 64 -40 58 -58 -5 -17 107 -175 172 -242 l34
-36 -63 -17 c-175 -47 -406 -57 -523 -21 -214 64 -417 235 -470 396 -20 58
-38 75 -30 27 15 -85 120 -233 214 -302 29 -21 50 -41 47 -44 -3 -3 -14 2 -24
11 -10 10 -22 14 -25 10 -10 -9 13 -33 32 -33 9 -1 4 -7 -14 -17 -42 -22 -42
-22 -15 -43 24 -18 24 -19 7 -38 -18 -20 -18 -20 15 -28 18 -4 36 -7 41 -6 4
1 7 -2 7 -7 0 -5 -9 -11 -21 -14 -29 -8 -19 -31 17 -37 19 -4 25 -8 17 -13
-19 -12 -16 -47 3 -47 9 0 18 -9 21 -20 6 -24 16 -25 38 -4 12 13 19 14 30 4
8 -7 15 -21 15 -31 0 -19 9 -23 45 -19 14 1 17 -1 10 -9 -6 -6 -46 -16 -90
-22 -134 -18 -127 -15 -119 -53 3 -19 1 -59 -6 -91 -17 -84 -59 -109 -278
-165 -24 -6 -53 -21 -65 -33 l-22 -22 35 -6 c19 -3 46 -11 60 -19 41 -22 114
-86 131 -117 21 -36 17 -137 -6 -188 -18 -37 -108 -124 -162 -157 -52 -31 -44
-48 20 -48 13 0 178 -50 196 -59 30 -17 21 -24 -13 -11 -15 5 -39 10 -54 9
-21 0 -15 -5 25 -18 64 -22 79 -34 103 -82 31 -61 32 -89 5 -146 -35 -71 -145
-160 -307 -249 -101 -55 -62 -54 58 2 100 46 103 47 80 32 -18 -12 -28 -22
-73 -70 -9 -10 -14 -21 -10 -24 3 -3 41 21 84 55 82 62 174 110 373 191 121
50 160 83 160 137 0 37 242 502 327 628 18 27 33 53 33 57 0 5 -17 8 -39 8
-31 0 -50 9 -98 48 -86 68 -94 78 -95 113 -2 59 65 68 115 16 48 -50 87 -101
87 -115 0 -7 12 -17 26 -22 19 -8 25 -16 21 -30 -3 -13 5 -27 28 -45 19 -14
40 -25 48 -25 8 0 20 -7 27 -15 7 -8 16 -13 20 -10 5 3 15 -4 24 -16 12 -17
18 -20 29 -11 8 7 17 9 20 5 4 -3 7 3 7 15 0 11 -4 24 -10 27 -5 3 -10 1 -10
-6 0 -8 -7 -6 -19 5 -11 10 -25 15 -30 11 -6 -3 -11 1 -11 9 0 12 -10 16 -35
16 -19 0 -35 5 -35 10 0 6 -6 10 -14 10 -10 0 -13 10 -9 35 4 27 1 35 -11 35
-20 0 -31 19 -18 32 12 12 -5 58 -22 58 -6 0 -31 19 -56 42 -25 22 -60 47 -79
55 l-33 14 56 36 c32 19 55 38 52 40 -3 3 -26 0 -50 -7 -25 -7 -56 -10 -70 -6
-29 7 -44 -9 -21 -21 13 -8 10 -16 -19 -54 -41 -51 -51 -85 -37 -122 13 -33
154 -146 192 -154 34 -6 36 -14 10 -37 -15 -13 -20 -14 -23 -4 -3 7 -11 -5
-18 -27 -11 -35 -100 -212 -120 -240 -28 -40 -200 -376 -200 -392 0 -16 -54
-55 -115 -83 -86 -39 -176 -71 -186 -65 -5 4 -9 2 -9 -4 0 -6 -10 -16 -22 -22
-22 -12 -22 -12 -7 12 17 24 109 66 109 49 0 -5 13 -1 30 8 16 9 30 24 30 32
0 13 1 13 10 0 15 -21 80 52 182 204 109 163 162 276 129 276 -16 0 -153 -189
-146 -201 5 -7 16 -2 32 13 l26 23 -24 -37 c-87 -135 -174 -244 -199 -251 -19
-5 -18 -3 5 21 52 54 138 163 160 202 18 34 -121 -105 -155 -154 -22 -32 -130
-136 -141 -136 -22 0 0 27 135 166 80 82 143 150 141 152 -2 2 -17 -5 -33 -17
-50 -35 -43 -24 25 42 61 59 92 97 77 97 -10 0 -170 -158 -227 -225 -29 -33
-44 -54 -34 -46 28 22 20 -3 -11 -32 l-28 -27 4 37 c4 32 19 52 91 123 47 47
102 100 121 117 42 37 70 70 70 83 0 5 6 7 13 4 8 -3 33 13 58 36 24 22 47 40
51 40 10 0 53 87 62 123 10 42 -7 26 -45 -40 -39 -67 -96 -133 -115 -133 -21
0 -17 15 9 29 12 6 38 34 57 61 19 28 47 66 63 86 15 20 27 45 27 55 0 11 5
19 11 19 6 0 9 -9 6 -20 -8 -31 9 -24 31 14 l20 34 -94 96 c-52 53 -94 100
-94 103 0 4 9 17 21 29 11 12 19 30 17 41 -3 14 -9 11 -28 -19 -28 -42 -36
-45 -62 -21 -24 21 -23 5 2 -27 30 -38 24 -45 -14 -16 -55 41 -64 30 -16 -19
24 -25 49 -45 55 -45 5 0 24 -12 40 -26 22 -18 24 -22 8 -14 -13 6 -23 7 -23
2 0 -5 10 -17 23 -25 12 -9 17 -16 11 -16 -13 -1 -64 48 -64 60 0 5 -14 9 -30
9 -17 0 -47 7 -67 15 -20 9 -46 12 -57 9 -20 -7 -104 -6 -156 1 -102 13 -129
17 -160 24 l-35 8 68 33 c90 45 154 101 167 148 12 46 13 61 0 42 -7 -11 -10
-5 -10 23 l0 38 43 -37 c24 -20 83 -61 132 -89 50 -28 95 -62 101 -74 11 -21
13 -21 48 27 47 65 46 86 -1 40 l-38 -37 -50 45 c-43 39 -46 43 -18 29 18 -8
35 -15 38 -15 26 1 35 -1 33 -7 -7 -19 18 -13 27 6 5 11 15 21 22 21 6 0 15 5
19 12 5 8 -2 9 -27 3 -62 -14 -82 -9 -197 42 -29 13 -57 21 -61 19 -4 -3 -13
-1 -21 4 -18 11 -4 17 52 22 29 3 35 1 26 -9 -26 -31 14 -10 58 32 l48 44 31
-20 c68 -45 185 -89 185 -69 0 6 -14 13 -30 17 -37 7 -33 13 10 20 18 2 42 8
54 13 20 8 20 8 -4 13 -14 3 -53 8 -88 11 -74 5 -130 36 -154 86 l-16 32 -32
-35 c-32 -35 -33 -36 -56 -19 -37 27 -39 45 -3 26 17 -8 33 -13 37 -10 3 3 1
6 -3 6 -5 0 6 16 25 35 39 40 35 44 -12 15 -44 -26 -86 -25 -128 4 -20 13 -44
26 -55 28 -19 5 -18 6 4 15 21 9 22 11 7 25 -9 9 -16 26 -16 37 0 11 -7 26
-15 35 -8 8 -15 20 -15 27 0 15 64 6 107 -16 58 -29 196 -65 266 -69 38 -2 73
-9 76 -15 5 -8 17 -8 37 -2 16 5 43 12 59 15 l30 6 -25 -15 c-18 -10 -20 -14
-8 -15 25 0 49 11 43 21 -3 4 14 13 37 19 24 6 49 13 56 15 8 3 12 -10 12 -43
0 -30 7 -58 20 -77 28 -42 25 -54 -17 -97 -50 -51 -24 -48 59 6 37 24 85 47
105 51 21 4 49 15 63 24 40 28 63 34 56 15 -3 -8 -6 -21 -6 -27 0 -24 -19 -39
-51 -43 -79 -8 -96 -16 -152 -67 -31 -30 -57 -59 -57 -66 0 -14 15 -7 47 22
l22 20 11 -27 c5 -14 14 -37 20 -50 7 -20 6 -25 -8 -28 -13 -3 -10 -8 13 -21
l30 -16 -30 -1 c-43 -2 -66 -7 -77 -18 -6 -6 15 -8 54 -6 l63 3 -47 -15 c-27
-8 -53 -24 -58 -35 -13 -23 -8 -24 29 -4 l28 14 -5 -69 c-5 -74 3 -115 17 -91
7 11 11 9 20 -8 20 -37 31 -13 16 37 -30 97 -24 112 72 189 25 20 43 43 46 62
9 41 41 71 77 71 l29 0 -24 -25 c-14 -13 -25 -30 -25 -38 0 -7 -11 -24 -24
-36 -14 -13 -22 -29 -20 -36 3 -7 -10 -24 -28 -38 -38 -31 -30 -49 24 -50 62
0 117 21 133 54 9 16 27 35 40 41 18 8 25 19 25 40 0 18 5 28 15 28 8 0 25 11
37 25 27 32 46 32 46 1 0 -14 9 -36 20 -50 27 -35 19 -57 -37 -104 -30 -26
-64 -70 -96 -128 -59 -105 -89 -139 -138 -152 -20 -6 -44 -18 -53 -27 -12 -11
-20 -13 -27 -6 -18 18 -37 13 -37 -9 0 -26 25 -36 46 -19 13 11 19 8 39 -17
l23 -29 26 24 c22 21 26 22 32 7 15 -38 62 4 49 44 -8 26 -25 26 -25 0 0 -22
-10 -26 -28 -8 -8 8 -15 8 -27 -2 -13 -11 -15 -10 -10 3 6 14 32 28 81 42 13
3 26 -1 34 -10 7 -8 19 -15 26 -15 18 0 21 24 12 85 -3 19 4 51 18 84 13 29
24 59 24 67 0 7 20 27 45 44 71 49 76 73 33 172 l-21 48 -46 -4 c-25 -2 -56
-5 -68 -5 -18 -1 -22 -9 -28 -51 -4 -28 -11 -47 -16 -44 -5 3 -12 -3 -16 -13
-4 -10 -15 -24 -25 -31 -10 -7 -18 -19 -18 -27 0 -8 -17 -19 -37 -24 -50 -14
-62 -13 -41 2 9 8 18 19 20 27 2 8 14 23 27 35 14 12 24 32 24 48 0 16 5 27
13 27 12 0 48 59 40 67 -9 9 -63 14 -93 8 -24 -4 -39 -17 -60 -51 -37 -60 -73
-104 -84 -104 -5 0 -8 4 -7 8 2 4 -4 24 -13 43 -53 111 -53 111 -24 136 20 18
38 23 79 23 52 0 53 1 70 38 9 20 18 46 18 58 3 35 -23 84 -53 99 -38 20 -42
19 -35 -10 4 -15 -1 -39 -14 -64 -18 -34 -26 -40 -63 -44 -23 -3 -51 -7 -61
-9 -16 -2 -23 8 -38 57 -29 92 -28 92 97 135 61 20 180 65 267 98 262 103 347
120 585 117 166 -2 232 -16 351 -71 65 -29 121 -67 174 -114 41 -37 67 -171
66 -350 0 -203 -20 -309 -69 -364 -19 -23 -31 -49 -35 -77 -10 -89 -28 -146
-67 -222 -43 -84 -54 -95 -33 -32 15 43 22 90 31 200 3 39 8 90 10 115 2 25 7
92 11 150 3 58 8 116 9 130 2 14 4 30 4 36 1 6 18 16 40 22 54 17 65 34 64
102 -1 76 -27 131 -68 143 -48 13 -179 1 -223 -22 -57 -29 -75 -71 -58 -142 7
-30 20 -69 30 -87 16 -31 16 -103 1 -184 -3 -15 -18 -221 -18 -255 -1 -28 -16
-10 -45 55 -18 37 -41 95 -52 127 -11 33 -34 95 -52 137 -30 74 -31 78 -15
110 21 44 16 131 -10 166 -26 35 -67 39 -146 13 -34 -11 -81 -22 -104 -25 -54
-7 -80 -23 -93 -60 -27 -77 2 -168 57 -179 25 -5 36 -20 82 -109 30 -57 58
-108 63 -115 5 -6 63 -117 128 -245 130 -256 138 -265 209 -246 20 6 42 15 49
20 6 6 12 7 12 4 0 -13 -127 -130 -201 -186 -249 -185 -514 -275 -799 -269
-223 4 -375 42 -584 145 -107 53 -104 25 4 -33 120 -65 314 -125 451 -140 115
-13 361 -5 389 12 3 2 21 6 41 9 60 9 199 56 286 97 229 105 417 271 572 504
97 146 115 158 138 89 35 -104 190 -183 301 -152 43 12 137 98 165 153 17 33
21 58 21 135 0 83 -9 208 -19 258 -3 16 -7 59 -21 230 l-5 62 41 0 c57 0 90
33 85 86 -1 22 -3 49 -4 61 -1 12 -12 34 -25 50 -21 24 -30 27 -75 26 -55 -2
-244 -43 -332 -71 l-54 -17 0 -60 c1 -115 27 -151 97 -136 25 6 40 5 47 -3 16
-19 72 -318 73 -391 2 -122 -60 -217 -112 -170 -20 18 -20 18 0 50 24 39 25
81 4 135 -24 59 -59 62 -166 16 -21 -9 -38 -12 -38 -7 0 5 7 11 15 14 40 16
63 144 63 357 1 365 -88 611 -326 903 -63 78 -65 81 -46 97 10 9 30 29 44 45
l25 29 -32 -20 c-17 -10 -58 -37 -91 -59 -33 -22 -68 -45 -78 -52 -18 -10 -18
-12 6 -21 l24 -9 -21 -12 c-28 -14 -36 -14 -27 1 5 8 0 9 -15 5 -22 -5 -22 -5
-6 13 16 18 16 18 -4 13 -39 -10 -21 5 42 35 35 17 70 39 78 48 12 15 11 16
-19 10 -25 -6 -32 -4 -32 8 0 8 9 20 19 26 24 12 34 13 27 1 -3 -5 1 -14 8
-21 19 -15 43 -2 85 46 30 33 31 37 17 59 -13 20 -13 25 0 44 10 14 13 32 8
55 -5 27 -1 42 15 65 12 16 21 34 21 40 0 25 -22 8 -55 -45 -20 -31 -38 -54
-41 -52 -6 7 54 106 94 153 35 44 39 55 18 55 -8 0 -21 -12 -28 -26 -14 -29
-58 -63 -58 -46 0 6 7 17 15 25 19 20 95 166 95 185 0 23 -23 8 -31 -20 -11
-42 -67 -147 -104 -196 -48 -62 -44 -38 5 34 40 59 49 81 29 68 -8 -5 -8 -1 0
14 6 11 17 22 26 26 8 3 15 11 15 18 0 7 17 47 37 90 28 61 34 81 24 91 -9 9
-13 7 -17 -11 -4 -12 -10 -22 -15 -22 -13 0 -11 34 3 48 10 10 7 17 -10 34
-20 21 -22 21 -22 4 0 -18 -1 -18 -18 -3 -17 16 -20 15 -39 -21z m47 -109 c0
-4 -17 -36 -39 -72 -21 -36 -50 -86 -64 -111 -26 -44 -95 -120 -173 -190 -21
-19 -10 -5 25 32 102 106 65 89 -50 -23 -57 -55 -113 -105 -124 -111 -23 -12
17 33 115 130 118 117 160 151 177 145 10 -4 14 -2 10 4 -3 5 16 45 43 89 28
43 53 86 56 96 5 17 24 26 24 11z m-89 -245 c-17 -24 -42 -56 -57 -73 -23 -27
-24 -27 -13 -5 19 39 90 132 96 126 3 -2 -9 -24 -26 -48z m27 -70 c-8 -12 -21
-24 -29 -26 -8 -3 -3 7 10 22 30 32 39 34 19 4z m-1118 -14 c0 -4 -8 -13 -17
-21 -16 -12 -13 -13 30 -11 l48 3 -28 -22 c-19 -15 -23 -23 -13 -24 8 -1 22
-2 30 -3 8 0 16 -7 16 -13 1 -7 2 -18 3 -24 0 -6 7 -9 15 -6 10 4 12 -3 10
-25 -5 -38 -14 -54 -24 -39 -10 17 -36 4 -49 -25 -13 -29 -56 -49 -126 -59
-34 -4 -59 -15 -80 -34 -16 -15 -39 -34 -49 -42 -18 -13 -19 -13 -7 9 16 31 8
38 -21 18 -27 -19 -59 -21 -76 -4 -21 21 -13 47 23 71 19 13 77 63 129 111
125 116 186 161 186 140z m1067 -61 c-8 -15 -28 -39 -43 -53 -16 -14 -22 -17
-15 -7 7 9 10 17 6 17 -4 0 -2 7 5 15 7 9 10 18 8 21 -3 3 -33 -28 -66 -69
-78 -95 -156 -166 -226 -206 -61 -34 -72 -38 -57 -18 97 119 184 199 207 190
8 -3 14 -1 14 5 0 5 27 38 60 73 45 47 63 60 71 52 9 -9 15 -8 27 3 21 22 26
10 9 -23z m-143 -34 c-21 -24 -74 -63 -74 -55 0 8 84 85 89 80 2 -2 -4 -13
-15 -25z m226 22 c0 -5 -29 -36 -65 -69 l-65 -60 44 3 c25 2 51 6 58 10 7 4 0
-5 -15 -19 -31 -29 -49 -34 -41 -11 5 11 0 13 -25 5 -19 -5 -33 -5 -37 1 -6
10 2 21 49 74 10 11 25 31 32 45 13 25 65 41 65 21z m-370 -6 c0 -10 -198
-210 -204 -205 -8 9 107 148 150 180 37 28 54 36 54 25z m40 -62 c0 -4 -23
-30 -50 -58 -28 -28 -52 -61 -55 -74 -4 -24 -65 -105 -98 -131 -87 -69 -138
-113 -149 -129 -8 -11 -25 -25 -39 -30 -17 -7 -19 -10 -6 -10 20 -1 22 -14 6
-43 -9 -16 -7 -24 8 -40 19 -19 162 -72 170 -64 7 6 -80 45 -116 52 -110 22
43 137 189 143 36 1 94 6 130 11 35 5 67 7 69 4 10 -9 -23 -24 -56 -25 -18 -1
-36 -2 -40 -3 -5 -1 -24 -5 -44 -9 -21 -4 -43 -14 -49 -23 -8 -9 -28 -14 -54
-13 -42 1 -154 -26 -170 -41 -6 -6 -2 -12 10 -16 10 -4 38 -15 61 -26 24 -10
55 -23 70 -29 27 -10 27 -10 8 10 -10 12 -24 21 -32 21 -8 0 -11 5 -8 10 3 6
20 10 36 10 17 0 28 -4 25 -9 -11 -16 20 -32 45 -23 13 5 56 10 94 11 72 2
124 22 133 51 4 11 -1 10 -22 -4 -15 -10 -30 -15 -34 -12 -3 3 1 6 8 6 10 0
11 3 3 11 -8 8 4 19 47 41 32 17 81 50 109 75 l51 45 20 -24 c67 -78 135 -176
178 -259 53 -98 106 -229 94 -229 -4 0 -26 17 -49 38 -117 105 -320 162 -556
157 l-112 -2 55 14 c61 16 91 38 83 59 -7 19 -23 18 -23 -1 0 -8 -6 -15 -14
-15 -7 0 -19 7 -26 15 -18 22 -34 19 -64 -12 -38 -37 -97 -35 -182 7 -70 34
-92 64 -68 91 8 9 10 19 5 25 -27 27 47 137 120 178 24 13 14 0 -34 -44 -37
-34 -66 -65 -63 -68 3 -2 23 10 43 29 21 19 64 51 95 73 47 32 62 50 88 104
37 78 160 212 160 175z m-242 -105 c-24 -37 -48 -74 -54 -85 -7 -10 -16 -14
-20 -10 -5 5 -1 13 9 18 9 6 17 18 17 28 0 10 7 24 15 31 17 14 9 35 -8 22
-19 -13 -73 -34 -62 -24 15 15 139 91 142 88 2 -1 -16 -32 -39 -68z m411 8
c10 -11 4 -22 -26 -51 -61 -60 -226 -165 -239 -152 -3 2 19 16 48 31 47 23 49
26 20 21 -54 -8 -30 18 106 113 42 28 77 52 78 52 1 0 7 -6 13 -14z m-329 -36
c-11 -21 -20 -45 -20 -52 0 -8 -7 -24 -16 -37 -23 -33 -43 -11 -20 23 9 14 16
31 16 38 0 15 41 68 53 68 4 0 -2 -18 -13 -40z m-186 -83 c-3 -9 -17 -23 -31
-32 -28 -19 -24 -6 10 32 22 25 31 25 21 0z m276 -8 c0 -17 -56 -65 -118 -101
-61 -35 -57 -51 5 -20 21 11 51 18 68 16 18 -3 58 7 100 25 69 28 117 32 82 6
-25 -18 -235 -67 -298 -69 -30 -2 -61 -6 -67 -10 -7 -4 -12 -5 -12 -2 0 8 89
78 102 80 8 1 29 13 48 27 42 31 83 59 87 59 2 0 3 -5 3 -11z m-360 -11 c0 -7
-12 -31 -25 -53 -14 -22 -25 -55 -25 -72 0 -39 -15 -44 -24 -7 -5 19 1 37 24
70 16 25 30 52 30 60 0 7 5 14 10 14 6 0 10 -6 10 -12z m109 -15 c-36 -41 -72
-77 -90 -91 -12 -9 -16 -9 -17 1 -7 56 -6 62 13 65 17 4 18 2 6 -12 -8 -9 -11
-19 -8 -23 4 -3 29 15 56 40 55 52 79 63 40 20z m551 -43 c0 -4 -10 -15 -22
-26 -13 -10 -20 -15 -16 -10 4 5 3 16 -2 26 -8 14 -5 18 15 18 14 0 25 -4 25
-8z m-60 -20 c0 -17 -50 -31 -94 -28 l-41 3 45 17 c52 19 90 22 90 8z m-616
-36 c3 -8 2 -12 -4 -9 -6 3 -10 10 -10 16 0 14 7 11 14 -7z m-15 -61 c7 7 12
5 17 -7 9 -23 -13 -47 -25 -27 -5 7 -17 11 -27 9 -15 -3 -13 -8 15 -41 18 -20
28 -37 22 -37 -13 0 -71 78 -71 96 0 9 8 10 29 4 18 -5 33 -4 40 3z m527 -8
c-11 -8 -22 -12 -25 -9 -6 6 19 24 34 24 6 -1 1 -7 -9 -15z m-57 -29 c9 -11 4
-15 -26 -21 -21 -4 -60 -9 -88 -11 l-50 -3 34 15 c18 8 44 12 57 10 12 -3 28
2 35 10 14 18 23 18 38 0z m-449 -26 c0 -5 -4 -10 -10 -10 -5 0 -10 5 -10 10
0 6 5 10 10 10 6 0 10 -4 10 -10z m-558 -172 c15 -10 33 -28 39 -40 11 -23 11
-23 -17 2 -40 33 -94 91 -94 99 0 3 11 -5 23 -19 12 -14 34 -33 49 -42z m-445
23 c27 -25 30 -32 24 -62 -6 -29 -11 -33 -32 -30 -13 1 -35 10 -49 18 -14 8
-17 12 -7 9 43 -13 67 -18 67 -12 0 9 -58 36 -79 36 -31 0 -35 19 -10 46 29
31 48 30 86 -5z m-247 -261 c0 -5 -6 -10 -14 -10 -8 0 -18 5 -21 10 -3 6 3 10
14 10 12 0 21 -4 21 -10z m2808 -87 c10 -20 9 -79 -1 -89 -4 -4 -10 7 -13 24
-6 30 -27 47 -23 20 3 -27 -1 -38 -16 -38 -8 0 -26 -5 -41 -12 l-27 -12 6
-126 c4 -69 9 -141 12 -160 2 -19 7 -53 10 -75 4 -22 8 -97 11 -166 3 -101 1
-134 -12 -165 -41 -99 -102 -140 -196 -131 -76 7 -118 34 -153 99 -15 29 -39
67 -52 85 -21 28 -27 31 -49 23 -36 -14 -35 -14 -32 31 3 42 3 42 57 56 30 7
59 17 65 22 6 4 25 11 43 14 35 7 43 -4 43 -54 0 -24 -4 -28 -22 -26 -20 2
-23 -2 -21 -27 3 -39 34 -96 65 -119 24 -18 30 -18 77 -6 51 13 51 13 81 86
43 102 41 172 -9 408 -15 71 -47 178 -61 204 l-11 22 -36 -21 c-43 -25 -68
-19 -82 21 -18 52 -5 64 114 94 33 9 76 18 95 21 19 3 37 8 39 10 2 2 33 4 67
4 50 0 65 -4 72 -17z m-1828 -30 c0 -7 -7 -13 -15 -13 -15 0 -21 31 -8 43 8 8
23 -12 23 -30z m-908 -65 c-12 -12 -35 -1 -27 12 3 5 13 6 21 3 10 -4 12 -9 6
-15z m2114 9 c4 -4 9 -31 12 -60 l4 -54 -53 -15 c-40 -11 -54 -19 -55 -34 -3
-47 -15 -215 -19 -269 -2 -33 -7 -96 -10 -140 -6 -80 -15 -175 -20 -204 -2 -9
-6 -44 -10 -78 l-7 -62 -46 -15 c-82 -28 -81 -29 -151 112 -35 70 -93 181
-129 247 -36 66 -90 167 -120 225 -65 127 -67 130 -103 130 -28 0 -29 1 -29
53 l0 52 116 32 c64 18 120 31 125 28 12 -8 22 -71 15 -98 -3 -13 -19 -29 -38
-38 -18 -8 -34 -22 -36 -32 -4 -17 54 -144 70 -153 9 -6 3 14 -29 85 -13 29
-22 61 -21 70 4 17 77 -127 98 -194 7 -22 46 -113 86 -202 41 -90 74 -168 74
-174 0 -6 8 -9 18 -7 26 5 39 61 47 192 4 65 8 130 10 145 6 49 18 236 18 266
-1 16 -6 31 -13 33 -14 5 -30 45 -36 88 -5 43 15 66 67 73 57 8 157 7 165 -2z
m-1936 -86 c-10 -20 -30 -29 -30 -13 0 4 8 18 17 32 19 27 30 12 13 -19z
m-420 -356 c-14 -17 -30 -20 -30 -6 0 5 8 12 18 14 9 3 19 5 21 6 2 0 -2 -6
-9 -14z m-30 -36 c11 -6 6 -8 -16 -9 -20 0 -34 6 -38 16 -5 12 -1 14 17 8 12
-3 29 -10 37 -15z m135 -48 c130 -22 173 -27 312 -41 50 -4 101 -13 112 -19
24 -13 83 -17 99 -7 7 4 12 2 12 -3 0 -6 -5 -11 -11 -11 -8 0 -7 -5 1 -15 10
-12 10 -19 2 -27 -7 -7 -12 -19 -12 -28 0 -35 -152 -163 -346 -290 -69 -46
-98 -69 -80 -65 17 3 64 30 105 59 42 29 113 78 158 109 45 31 84 57 87 57 12
0 -31 -42 -64 -63 -19 -12 -91 -62 -160 -111 -69 -49 -138 -94 -155 -101 -26
-12 -32 -11 -57 10 -15 13 -48 31 -73 41 -40 15 -48 15 -55 3 -7 -10 -12 -11
-20 -3 -7 7 36 23 147 54 164 45 250 81 318 133 72 55 72 56 -10 22 -41 -17
-40 -13 9 23 16 12 25 22 21 22 -4 0 -2 7 5 15 18 21 8 19 -89 -19 -47 -19
-99 -40 -115 -46 -16 -6 -27 -13 -24 -15 3 -3 38 6 78 20 80 27 95 30 66 14
-20 -12 -398 -140 -402 -136 -1 1 18 25 43 52 63 71 86 123 79 187 -8 70 -41
123 -106 170 -49 35 -51 39 -25 34 17 -3 84 -14 150 -25z m1245 -67 c0 -18
-14 -18 -30 1 -16 19 -3 40 16 24 8 -6 14 -18 14 -25z m-1007 -275 c-28 -28
-435 -150 -450 -135 -7 7 -10 6 157 55 74 21 167 50 205 64 80 28 104 32 88
16z m116 -51 c-19 -35 -224 -235 -248 -243 -16 -5 -27 -1 -36 12 -20 26 -18
41 7 49 13 4 47 25 76 46 50 37 52 38 35 12 -13 -21 -14 -26 -3 -19 36 21 90
68 90 78 0 9 78 86 88 87 1 0 -3 -10 -9 -22z m-324 -206 c3 -8 -4 -6 -20 5
-13 10 -25 21 -25 26 0 11 39 -16 45 -31z"/>
<path d="M3076 4215 c-11 -8 -17 -17 -14 -20 2 -3 13 4 23 15 21 23 18 25 -9
5z"/>
<path d="M2710 3570 c-14 -11 -20 -20 -14 -20 6 0 19 9 29 20 23 25 17 25 -15
0z"/>
<path d="M3853 2996 c-67 -14 -74 -23 -22 -28 43 -4 80 8 87 30 4 14 5 14 -65
-2z"/>
<path d="M3676 2942 c-3 -4 11 -9 30 -9 18 -1 31 3 28 8 -7 11 -51 12 -58 1z"/>
<path d="M3838 2733 c-6 -24 6 -51 16 -35 3 6 2 20 -2 33 -9 22 -9 22 -14 2z"/>
<path d="M3888 2455 c-7 -7 2 -54 12 -60 4 -2 6 9 5 25 -2 31 -8 44 -17 35z"/>
<path d="M3882 2305 c-14 -31 -15 -45 -3 -45 10 0 26 58 19 66 -3 2 -10 -7
-16 -21z"/>
<path d="M3543 2299 c-9 -9 -7 -20 5 -45 20 -42 34 -44 22 -3 -5 16 -6 37 -3
45 6 17 -8 19 -24 3z"/>
<path d="M3610 2171 c0 -4 23 -18 50 -29 63 -26 66 -10 4 18 -53 23 -54 23
-54 11z"/>
<path d="M3824 2148 c-23 -17 -57 -34 -75 -38 l-34 -8 33 -1 c35 -1 100 27
121 52 23 28 -4 25 -45 -5z"/>
<path d="M3215 2869 c-4 -6 -5 -13 -2 -16 7 -7 27 6 27 18 0 12 -17 12 -25 -2z"/>
<path d="M3366 2851 c-11 -12 -16 -24 -12 -28 9 -9 39 22 34 37 -2 7 -10 4
-22 -9z"/>
<path d="M2768 2803 c-27 -9 -48 -19 -48 -24 0 -9 89 14 116 29 18 11 18 11
-1 11 -11 0 -41 -7 -67 -16z"/>
<path d="M2960 2405 c0 -11 5 -27 10 -35 8 -12 10 -12 10 5 0 11 -5 27 -10 35
-8 12 -10 12 -10 -5z"/>
<path d="M1499 2316 c-2 -2 -33 -7 -69 -11 -76 -7 -100 -13 -100 -25 0 -4 16
-6 35 -3 53 7 42 -4 -22 -23 -70 -20 -91 -36 -37 -27 49 7 132 34 209 67 59
25 59 26 24 26 -20 0 -38 -2 -40 -4z"/>
<path d="M1543 2287 c-18 -6 -33 -14 -33 -18 0 -4 -22 -15 -50 -24 -27 -9 -50
-20 -50 -25 0 -8 -12 -15 -104 -63 -22 -12 -34 -23 -28 -25 18 -6 148 46 164
65 17 22 147 83 173 82 20 0 20 0 0 -9 -11 -5 -29 -11 -40 -15 -20 -7 -20 -7
-1 -14 19 -7 19 -8 1 -15 -10 -4 -21 -2 -25 5 -6 8 -9 8 -14 0 -4 -6 -11 -9
-16 -6 -4 3 -13 -2 -21 -11 -10 -13 -9 -16 11 -21 l23 -6 -24 -18 c-22 -17
-23 -19 -4 -18 50 0 150 107 130 139 -8 12 -50 11 -92 -3z"/>
<path d="M1313 2210 c-37 -15 -28 -31 10 -18 17 6 36 15 42 19 12 12 -23 11
-52 -1z"/>
<path d="M2142 4251 c-6 -16 -6 -33 -2 -37 5 -5 10 -20 12 -34 2 -17 10 -26
26 -28 12 -2 22 -8 22 -13 0 -6 7 -6 19 1 23 12 31 13 30 3 -4 -22 3 -32 16
-27 8 4 15 1 15 -5 0 -6 7 -11 15 -11 8 0 15 -9 15 -19 0 -11 15 -29 36 -41
25 -16 32 -26 25 -33 -19 -19 -13 -25 46 -47 72 -27 104 -21 41 7 -37 17 -46
25 -42 40 4 15 -5 25 -40 44 -40 21 -43 25 -24 29 31 8 33 28 4 41 -15 7 -26
20 -26 31 0 17 -5 19 -32 13 -26 -6 -30 -5 -25 9 8 21 -8 29 -23 11 -18 -22
-30 -18 -30 9 0 41 -10 58 -27 45 -9 -8 -10 -14 -3 -19 6 -4 5 -13 -5 -26 -13
-18 -14 -16 -15 28 0 55 -14 70 -28 29z"/>
<path d="M1652 3960 c-222 -105 -419 -286 -550 -504 -65 -108 -49 -102 24 9
152 231 284 352 518 476 101 54 106 66 8 19z"/>
<path d="M2091 3673 c-10 -38 -22 -86 -26 -108 -11 -66 11 -28 34 60 12 44 24
88 27 98 3 9 1 17 -5 17 -6 0 -19 -30 -30 -67z"/>
<path d="M988 3211 c-52 -132 -61 -203 -61 -456 0 -132 3 -197 12 -210 10 -16
11 -5 5 60 -8 102 -8 267 0 325 4 25 9 63 12 85 6 47 30 141 50 203 25 73 11
68 -18 -7z"/>
<path d="M1265 3060 c-8 -13 55 -13 75 0 11 7 4 10 -27 10 -23 0 -45 -4 -48
-10z"/>
<path d="M1353 3029 c-45 -11 -80 -39 -47 -39 21 0 104 36 104 45 0 6 -2 6
-57 -6z"/>
<path d="M1818 3014 c-31 -16 -38 -54 -13 -74 8 -7 15 -18 15 -26 0 -20 -37
-9 -77 23 -61 49 -73 56 -81 49 -8 -8 38 -49 78 -69 14 -8 35 -19 47 -27 18
-12 25 -11 47 3 23 15 24 20 13 39 -6 12 -18 29 -25 36 -10 11 -10 17 -1 28
13 15 20 18 17 7 -1 -5 10 -30 26 -56 16 -26 27 -49 25 -50 -2 -1 -29 -14 -59
-29 l-55 -27 42 0 c23 -1 45 4 49 11 5 7 2 9 -7 4 -8 -4 -2 3 14 16 30 27 35
67 13 107 -8 14 -12 31 -9 38 7 18 -25 16 -59 -3z"/>
<path d="M1375 2980 c-16 -11 -26 -20 -22 -20 13 0 77 29 77 34 0 12 -26 5
-55 -14z"/>
<path d="M1739 2963 c11 -22 61 -58 61 -45 0 9 -36 44 -58 57 -11 6 -12 3 -3
-12z"/>
<path d="M1645 2941 c-5 -9 100 -81 117 -81 17 0 6 11 -51 50 -33 22 -62 36
-66 31z"/>
<path d="M1538 2744 c-14 -13 -9 -22 15 -27 16 -3 13 -5 -10 -6 -18 0 -33 -6
-33 -11 0 -9 158 -3 169 6 6 6 -69 35 -103 41 -17 3 -34 1 -38 -3z"/>
<path d="M2477 2654 c-3 -4 -2 -16 4 -26 13 -24 35 -9 26 16 -7 17 -19 21 -30
10z"/>
<path d="M2080 2505 c0 -14 5 -25 10 -25 6 0 10 -9 10 -19 0 -24 18 -37 32
-23 7 7 4 21 -7 45 -21 45 -45 56 -45 22z"/>
<path d="M2283 2421 c-3 -11 -15 -21 -27 -23 -13 -2 -22 -11 -24 -25 -4 -27
10 -29 49 -6 32 19 41 36 33 58 -8 21 -25 19 -31 -4z"/>
<path d="M1731 2242 c-16 -30 -31 -72 -26 -72 7 0 45 83 41 88 -3 2 -9 -5 -15
-16z"/>
<path d="M3750 1940 c-11 -7 -5 -10 23 -10 89 0 9 -34 -122 -50 -71 -9 -91
-21 -72 -44 16 -20 1 -23 -129 -31 -58 -3 -114 -9 -125 -12 -11 -3 -17 -2 -13
2 4 4 45 16 90 26 75 17 78 18 28 14 -112 -9 -210 -35 -210 -56 0 -4 120 -6
268 -5 260 2 306 8 235 31 -49 16 -48 21 14 45 69 28 113 57 113 75 0 22 -72
33 -100 15z m-93 -107 c5 -15 -21 -23 -38 -12 -12 8 -12 10 1 19 17 11 32 8
37 -7z"/>
<path d="M3510 1830 c0 -5 14 -10 32 -10 36 0 33 9 -6 16 -14 2 -26 0 -26 -6z"/>
<path d="M3516 1749 c-33 -26 -28 -31 47 -54 88 -27 76 -39 -53 -50 -41 -4
-81 -7 -87 -8 -7 0 -13 -4 -13 -9 0 -4 42 -8 93 -8 72 0 99 4 122 18 30 19 63
67 53 77 -3 3 -34 10 -69 16 -71 11 -80 16 -59 29 8 6 10 10 4 10 -6 0 -23
-10 -38 -21z"/>
<path d="M3371 1741 c-9 -6 -10 -11 -2 -15 14 -9 51 2 51 15 0 11 -30 12 -49
0z"/>
<path d="M3175 1693 c6 -5 37 -16 70 -23 33 -7 71 -19 85 -26 25 -14 24 -15
-10 -8 -19 3 -66 15 -103 25 -82 24 -109 19 -47 -8 57 -25 198 -73 215 -73 7
0 16 -6 19 -12 3 -9 9 -7 20 6 18 22 7 36 -30 36 -13 0 -24 8 -27 19 -3 12
-25 26 -61 40 -64 24 -147 39 -131 24z"/>
<path d="M3451 1571 c-7 -5 -11 -16 -9 -27 2 -12 -4 -19 -17 -21 -11 -2 -37
-9 -58 -15 -45 -14 -57 -5 -32 22 24 26 1 26 -25 0 -16 -16 -18 -24 -10 -41
10 -17 20 -19 75 -17 36 2 65 7 65 12 0 5 3 6 6 3 16 -15 -21 -38 -55 -35 -35
3 -36 2 -33 -30 3 -26 0 -32 -16 -32 -23 0 -75 57 -66 71 8 13 -20 11 -34 -3
-9 -9 -5 -23 15 -60 20 -37 24 -51 15 -60 -9 -9 -22 -2 -53 31 -37 40 -42 43
-56 28 -15 -14 -13 -19 12 -49 47 -57 115 -80 115 -39 0 10 12 27 28 37 35 23
47 35 55 56 3 10 21 25 40 35 94 51 114 73 95 106 -12 23 -42 37 -57 28z"/>
<path d="M2934 1489 c-3 -6 -15 -48 -25 -94 -18 -86 -52 -165 -69 -165 -12 0
-13 -6 6 84 8 42 14 81 12 87 -2 7 -21 -17 -41 -52 -21 -35 -51 -80 -67 -99
l-28 -35 14 55 c15 59 17 90 8 114 -9 24 -25 19 -66 -19 -20 -20 -42 -34 -49
-33 -6 2 -21 -15 -33 -37 -12 -22 -46 -71 -76 -110 -58 -76 -91 -141 -83 -162
6 -15 32 -12 87 11 43 18 56 15 34 -7 -27 -28 -153 -110 -196 -128 -24 -11
-64 -19 -88 -19 -38 0 -46 4 -54 25 -13 34 -20 31 -16 -6 6 -52 36 -60 124
-34 114 34 261 158 402 338 41 53 76 95 77 93 2 -1 -9 -43 -23 -92 -27 -92
-73 -198 -119 -271 -14 -24 -22 -43 -16 -43 14 0 79 78 112 135 16 28 38 78
50 113 18 53 40 82 63 82 3 0 22 -26 42 -57 20 -32 46 -66 57 -75 l22 -18 -65
-63 c-140 -134 -328 -262 -540 -367 -56 -27 -118 -52 -138 -56 -20 -4 -55 -17
-77 -29 -47 -27 -130 -41 -140 -25 -14 23 7 82 41 116 45 43 180 127 323 199
113 58 158 90 77 56 -52 -23 -228 -115 -306 -161 -170 -100 -241 -218 -143
-236 104 -20 403 116 703 319 41 27 77 53 80 56 3 3 21 18 40 33 19 15 55 46
80 69 81 75 151 112 165 88 4 -5 18 -1 32 11 14 11 31 20 38 20 19 0 50 39 39
50 -11 11 -49 1 -122 -31 -46 -20 -68 -25 -39 -8 36 21 15 29 -24 9 -23 -12
-44 -19 -47 -16 -3 3 -1 6 4 6 5 0 15 4 23 9 12 8 10 15 -12 44 -15 20 -33 41
-40 49 -30 29 -34 49 -21 88 7 21 15 67 17 102 4 86 14 100 44 62 22 -28 23
-28 18 -5 -7 37 -54 57 -71 30z m-209 -165 c-8 -64 -31 -114 -50 -114 -12 0
-15 -6 -10 -21 5 -16 3 -20 -6 -17 -8 3 -13 15 -11 26 5 34 -12 26 -37 -18
-15 -26 -20 -47 -15 -62 l6 -21 15 24 14 24 -7 -25 c-8 -32 -24 -51 -35 -44
-5 3 -30 -4 -55 -16 -49 -24 -71 -18 -60 18 16 48 219 292 244 292 11 0 12
-10 7 -46z"/>
<path d="M3055 1324 c-47 -24 -57 -39 -59 -88 -1 -59 19 -81 67 -72 19 3 42
15 52 26 17 19 41 18 30 -1 -4 -5 -2 -9 3 -9 15 0 22 26 10 38 -8 8 -8 15 -1
24 15 19 7 70 -13 85 -24 17 -53 16 -89 -3z m45 -23 c5 -11 10 -38 10 -60 0
-48 -26 -63 -59 -34 -25 21 -26 32 -7 78 17 39 40 45 56 16z"/>
<path d="M2250 535 c-10 -12 -10 -15 3 -15 19 0 31 16 18 24 -5 3 -14 -1 -21
-9z"/>
</g>
</svg>
